<?xml version="1.0" encoding="utf-8"?>
<!-- Generator: Adobe Illustrator 23.0.6, SVG Export Plug-In . SVG Version: 6.00 Build 0)  -->
<svg version="1.1" id="Capa_1" xmlns="http://www.w3.org/2000/svg" xmlns:xlink="http://www.w3.org/1999/xlink" x="0px" y="0px"
	 viewBox="0 0 562 303" style="enable-background:new 0 0 562 303;" xml:space="preserve">
<style type="text/css">
	.st0{fill:#3E52F5;}
	.st1{fill:#FFFFFF;}
</style>
<g>
	<g>
		<path class="st0" d="M530.38,270.59H409.87V150.2h120.51V270.59z M411.52,268.94h117.21V151.85H411.52V268.94z"/>
	</g>
	<g>
		<path class="st0" d="M424.15,207.8c-1.27,0-1.76,0.02-2.48,0.05c0.1-0.72,0.13-1.29,0.13-2.46v-9.16c0-0.89-0.03-1.61-0.13-2.41
			c0.85,0.05,1.09,0.05,2.46,0.05h4.39c2.71,0,4.31,1.31,4.31,3.52c0,1.02-0.34,1.83-0.97,2.4c-0.37,0.32-0.67,0.49-1.36,0.74
			c0.82,0.18,1.26,0.39,1.74,0.8c0.72,0.64,1.09,1.54,1.09,2.65c0,2.41-1.71,3.84-4.62,3.84H424.15z M428.04,199.24
			c0.89,0,1.44-0.52,1.44-1.34s-0.52-1.29-1.47-1.29h-2.91v2.63H428.04z M425.09,205.04h3.08c1.06,0,1.69-0.59,1.69-1.57
			c0-0.97-0.64-1.54-1.71-1.54h-3.07V205.04z"/>
		<path class="st0" d="M447.83,193.87c-0.1,0.72-0.13,1.32-0.13,2.53v5.76c0,3.82-2.29,5.98-6.33,5.98c-2.08,0-3.77-0.59-4.77-1.64
			c-0.97-1.04-1.47-2.5-1.47-4.37v-5.73c0-1.16-0.03-1.89-0.13-2.53h3.62c-0.1,0.62-0.13,1.29-0.13,2.53v5.76
			c0,2.11,0.95,3.12,2.91,3.12c2.01,0,2.96-1,2.96-3.12v-5.76c0-1.26-0.03-1.78-0.13-2.53H447.83z"/>
		<path class="st0" d="M452.94,203.26c0.07,0.6,0.18,0.9,0.44,1.24c0.4,0.5,1.11,0.79,1.96,0.79c1.29,0,2.06-0.57,2.06-1.51
			c0-0.52-0.27-0.97-0.7-1.17c-0.35-0.17-0.77-0.28-2.51-0.69c-1.54-0.33-2.08-0.54-2.7-0.97c-1.06-0.74-1.62-1.86-1.62-3.22
			c0-2.58,2.08-4.2,5.38-4.2c2.13,0,3.75,0.65,4.66,1.91c0.42,0.55,0.62,1.06,0.84,2.01l-3.55,0.39c-0.2-1.09-0.8-1.54-2.08-1.54
			c-1.02,0-1.78,0.55-1.78,1.32c0,0.47,0.25,0.82,0.79,1.07c0.33,0.15,0.33,0.15,2.31,0.55c1.27,0.27,2.08,0.55,2.71,0.95
			c1.21,0.75,1.81,1.88,1.81,3.42c0,1.26-0.4,2.33-1.17,3.08c-0.97,0.94-2.45,1.42-4.41,1.42c-1.42,0-2.83-0.3-3.74-0.82
			c-0.84-0.47-1.46-1.19-1.81-2.14c-0.17-0.4-0.25-0.79-0.37-1.56L452.94,203.26z"/>
		<path class="st0" d="M466.36,193.87c-0.1,0.69-0.13,1.26-0.13,2.48v8.98c0,1.16,0.03,1.78,0.13,2.48h-3.69
			c0.1-0.65,0.13-1.36,0.13-2.48v-8.98c0-1.26-0.03-1.74-0.13-2.48H466.36z"/>
		<path class="st0" d="M476.44,200.72c0.49,0.72,0.8,1.26,1.21,1.99c-0.07-0.77-0.1-1.54-0.1-2.48v-3.82c0-1.11-0.03-1.78-0.13-2.55
			h3.57c-0.1,0.75-0.13,1.46-0.13,2.55v8.89c0,1.02,0.05,1.79,0.13,2.5h-3.67c-0.3-0.64-0.69-1.26-1.26-2.13l-3.1-4.67
			c-0.45-0.67-0.74-1.17-1.21-2.06c0.08,0.75,0.12,1.68,0.12,2.5v3.75c0,1.16,0.03,1.89,0.13,2.61h-3.57
			c0.1-0.65,0.13-1.39,0.13-2.63v-8.81c0-0.97-0.03-1.73-0.13-2.5h3.64c0.17,0.45,0.54,1.12,1.19,2.09L476.44,200.72z"/>
		<path class="st0" d="M493.58,207.92c-0.72-0.08-1.32-0.12-2.76-0.12h-5.28c-1.27,0-1.74,0.02-2.46,0.05
			c0.1-0.67,0.13-1.29,0.13-2.45v-9.15c0-1.04-0.03-1.62-0.13-2.45c0.69,0.03,1.16,0.05,2.46,0.05h5.34c1.14,0,1.71-0.03,2.5-0.12
			v3.13c-0.77-0.08-1.37-0.12-2.5-0.12h-4.36v2.46h3.62c1.11,0,1.51-0.02,2.51-0.12v3.1c-0.79-0.08-1.36-0.12-2.51-0.12h-3.62v2.81
			h4.32c1.27,0,2.01-0.03,2.73-0.12V207.92z"/>
		<path class="st0" d="M498.35,203.26c0.07,0.6,0.18,0.9,0.44,1.24c0.4,0.5,1.11,0.79,1.96,0.79c1.29,0,2.06-0.57,2.06-1.51
			c0-0.52-0.27-0.97-0.7-1.17c-0.35-0.17-0.77-0.28-2.51-0.69c-1.54-0.33-2.08-0.54-2.7-0.97c-1.06-0.74-1.62-1.86-1.62-3.22
			c0-2.58,2.08-4.2,5.38-4.2c2.13,0,3.75,0.65,4.66,1.91c0.42,0.55,0.62,1.06,0.84,2.01l-3.55,0.39c-0.2-1.09-0.8-1.54-2.08-1.54
			c-1.02,0-1.78,0.55-1.78,1.32c0,0.47,0.25,0.82,0.79,1.07c0.33,0.15,0.33,0.15,2.31,0.55c1.27,0.27,2.08,0.55,2.71,0.95
			c1.21,0.75,1.81,1.88,1.81,3.42c0,1.26-0.4,2.33-1.17,3.08c-0.97,0.94-2.45,1.42-4.41,1.42c-1.42,0-2.83-0.3-3.74-0.82
			c-0.84-0.47-1.46-1.19-1.81-2.14c-0.17-0.4-0.25-0.79-0.37-1.56L498.35,203.26z"/>
		<path class="st0" d="M511.15,203.26c0.07,0.6,0.18,0.9,0.44,1.24c0.4,0.5,1.11,0.79,1.96,0.79c1.29,0,2.06-0.57,2.06-1.51
			c0-0.52-0.27-0.97-0.7-1.17c-0.35-0.17-0.77-0.28-2.51-0.69c-1.54-0.33-2.08-0.54-2.7-0.97c-1.06-0.74-1.62-1.86-1.62-3.22
			c0-2.58,2.08-4.2,5.38-4.2c2.13,0,3.75,0.65,4.66,1.91c0.42,0.55,0.62,1.06,0.84,2.01l-3.55,0.39c-0.2-1.09-0.8-1.54-2.08-1.54
			c-1.02,0-1.78,0.55-1.78,1.32c0,0.47,0.25,0.82,0.79,1.07c0.34,0.15,0.34,0.15,2.31,0.55c1.27,0.27,2.08,0.55,2.71,0.95
			c1.21,0.75,1.81,1.88,1.81,3.42c0,1.26-0.4,2.33-1.17,3.08c-0.97,0.94-2.45,1.42-4.41,1.42c-1.42,0-2.83-0.3-3.74-0.82
			c-0.84-0.47-1.46-1.19-1.81-2.14c-0.17-0.4-0.25-0.79-0.37-1.56L511.15,203.26z"/>
	</g>
	<g>
		<path class="st1" d="M424.84,225.2c0.06,0.55,0.17,0.82,0.4,1.13c0.37,0.46,1.01,0.72,1.78,0.72c1.17,0,1.88-0.52,1.88-1.37
			c0-0.47-0.24-0.88-0.64-1.07c-0.32-0.15-0.7-0.26-2.29-0.63c-1.4-0.31-1.89-0.49-2.46-0.88c-0.96-0.67-1.48-1.69-1.48-2.93
			c0-2.35,1.89-3.83,4.9-3.83c1.94,0,3.42,0.59,4.24,1.74c0.38,0.5,0.56,0.96,0.76,1.83l-3.23,0.35c-0.18-0.99-0.73-1.4-1.89-1.4
			c-0.93,0-1.62,0.5-1.62,1.2c0,0.43,0.23,0.75,0.72,0.98c0.31,0.14,0.31,0.14,2.1,0.5c1.16,0.24,1.89,0.5,2.47,0.87
			c1.1,0.69,1.65,1.71,1.65,3.11c0,1.14-0.37,2.12-1.07,2.81c-0.88,0.85-2.23,1.3-4.01,1.3c-1.3,0-2.58-0.27-3.4-0.75
			c-0.76-0.43-1.33-1.08-1.65-1.95c-0.15-0.37-0.23-0.72-0.34-1.42L424.84,225.2z"/>
		<path class="st1" d="M446.62,221.07c-0.29-1.39-1.1-2.07-2.41-2.07c-1.86,0-2.94,1.46-2.94,3.98c0,2.49,1.13,4,3.02,4
			c0.84,0,1.56-0.35,2-0.96c0.26-0.37,0.37-0.67,0.46-1.31l3.17,0.47c-0.29,1.3-0.63,2.04-1.27,2.79c-0.95,1.08-2.43,1.66-4.27,1.66
			c-1.86,0-3.43-0.58-4.52-1.68c-1.13-1.14-1.77-2.93-1.77-4.97c0-2.07,0.64-3.83,1.85-5.02c1.05-1.02,2.59-1.59,4.38-1.59
			c1.97,0,3.51,0.67,4.5,2c0.49,0.63,0.75,1.19,0.95,2.09L446.62,221.07z"/>
		<path class="st1" d="M467.6,216.64c-0.09,0.63-0.12,1.19-0.12,2.26v8.18c0,0.99,0.03,1.51,0.12,2.26h-3.28
			c0.09-0.64,0.12-1.21,0.12-2.26v-2.96h-5.14v2.96c0,0.99,0.03,1.57,0.12,2.26h-3.28c0.09-0.63,0.12-1.19,0.12-2.26v-8.18
			c0-1.05-0.03-1.6-0.12-2.26h3.28c-0.09,0.72-0.12,1.31-0.12,2.26v2.53h5.14v-2.53c0-1.05-0.03-1.66-0.12-2.26H467.6z"/>
		<path class="st1" d="M486.21,222.93c0,4.03-2.46,6.7-6.16,6.7c-3.74,0-6.15-2.61-6.15-6.65c0-4.03,2.41-6.6,6.16-6.6
			C483.81,216.37,486.21,218.93,486.21,222.93z M483.03,222.96c0-2.47-1.13-3.97-2.97-3.97c-1.86,0-3,1.51-3,3.97
			c0,2.49,1.14,4.03,3,4.03C481.91,226.98,483.03,225.46,483.03,222.96z"/>
		<path class="st1" d="M504.44,222.93c0,4.03-2.46,6.7-6.16,6.7c-3.74,0-6.15-2.61-6.15-6.65c0-4.03,2.41-6.6,6.16-6.6
			C502.04,216.37,504.44,218.93,504.44,222.93z M501.26,222.96c0-2.47-1.13-3.97-2.97-3.97c-1.86,0-3,1.51-3,3.97
			c0,2.49,1.14,4.03,3,4.03C500.13,226.98,501.26,225.46,501.26,222.96z"/>
		<path class="st1" d="M512.99,229.33c-1.05,0-1.68,0.02-2.26,0.05c0.09-0.53,0.12-1.21,0.12-2.23v-8.05c0-1.07-0.03-1.72-0.12-2.46
			h3.33c-0.11,0.79-0.12,1.22-0.12,2.41v7.57h3.69c1.3,0,1.82-0.02,2.53-0.11v2.93c-0.56-0.08-1.31-0.11-2.53-0.11H512.99z"/>
	</g>
	<g>
		<path class="st0" d="M405.17,132.68l-13.82,10.38l-13.52-11.87c-10.93,8.95-25.07,13.87-42.42,14.78
			c-13.38,0.7-24.66-1.99-33.84-8.06c-9.18-6.07-14.1-13.75-14.77-23.04c-0.51-7.1,1.83-13.45,7.01-19.06
			c5.18-5.61,13.29-11.25,24.32-16.9c-11.08-9.9-16.86-18.06-17.32-24.48c-0.52-7.31,2.46-13.59,8.97-18.85
			c6.5-5.26,14.99-8.16,25.45-8.71c9.74-0.51,17.97,1.46,24.71,5.9c6.73,4.44,10.35,10.06,10.83,16.84
			c0.43,6.05-1.54,11.41-5.93,16.06c-4.39,4.66-11.23,9.42-20.52,14.31l31.38,27.2c2.43-5.89,3.59-12.44,3.47-19.67l19.38-1.01
			c0,12.1-3.11,22.87-9.35,32.31L405.17,132.68z M366.55,121.17l-37.99-33.15c-8.13,4.35-14,8.36-17.59,12.03
			c-3.59,3.67-5.21,7.93-4.87,12.79c0.42,5.85,3.35,10.84,8.81,14.98c5.45,4.14,12.05,6.01,19.8,5.61
			C348.09,132.74,358.7,128.65,366.55,121.17z M334.13,71.16c6.61-3.28,11.41-6.45,14.38-9.51c2.97-3.06,4.31-6.65,4.01-10.78
			c-0.29-3.96-2.15-7.08-5.61-9.33c-3.45-2.26-7.4-3.27-11.84-3.04c-4.77,0.25-8.69,1.62-11.77,4.11c-3.08,2.49-4.48,5.61-4.21,9.37
			c0.3,4.23,3.65,9.16,10.04,14.8L334.13,71.16z"/>
	</g>
	<g>
		<g>
			<path class="st1" d="M97.88,27.2c-32.79,0-59.37,26.55-59.37,59.3s26.58,59.3,59.37,59.3s59.37-26.55,59.37-59.3
				S130.67,27.2,97.88,27.2z M97.88,119.72c-18.37,0-33.26-14.87-33.26-33.22s14.89-33.22,33.26-33.22s33.26,14.87,33.26,33.22
				S116.25,119.72,97.88,119.72z"/>
		</g>
	</g>
	<rect x="162.61" y="26.78" class="st1" width="25.56" height="119.29"/>
	<polygon class="st1" points="218.96,120.51 218.96,26.78 193.39,26.78 193.39,146.08 196.14,146.08 218.96,146.08 281.08,146.08 
		281.08,120.51 	"/>
	<path class="st1" d="M405.18,204.9h-4.54h-21.78H313.3c2.68-15.68,16.33-27.62,32.78-27.62c13.41,0,24.97,7.94,30.23,19.38h27.5
		c-6.25-26.09-29.73-45.49-57.73-45.49c-32.79,0-59.37,26.58-59.37,59.37c0,2.37,0.14,4.71,0.41,7.01h17.31h9.13h65.03
		c-3.22,15-16.55,26.25-32.52,26.25c-12.87,0-24.03-7.31-29.56-18h-27.83c6.73,25.4,29.87,44.12,57.39,44.12
		c32.79,0,59.37-26.58,59.37-59.37C405.45,208.63,405.36,206.75,405.18,204.9z"/>
	<path class="st1" d="M221.84,150.89c-31.64,0-57.73,24.74-59.51,55.93v62.94h26.11v-10.42V217.4h0.91h64.97h0.63v42.13v10.23h26.11
		v-55.5c0.09-1.32,0.14-2.66,0.14-4C281.21,177.47,254.63,150.89,221.84,150.89z M189.04,204.76c2.62-15.75,16.31-27.76,32.8-27.76
		s30.18,12.01,32.8,27.76H189.04z"/>
	<g>
		<path class="st1" d="M116.43,205.17H98.02v12.37h32.38c-3.22,15-16.55,26.25-32.52,26.25c-18.37,0-33.26-14.89-33.26-33.26
			s14.89-33.26,33.26-33.26c13.31,0,24.78,7.81,30.1,19.1h27.57c-6.35-25.95-29.76-45.21-57.67-45.21
			c-32.79,0-59.37,26.58-59.37,59.37s26.58,59.37,59.37,59.37s59.37-26.58,59.37-59.37c0-1.81-0.09-3.59-0.24-5.36h-26.3H116.43z"/>
	</g>
</g>
</svg>
